# xmcd
#
# Track frame offsets:
#        150
#        7257
#        10582
#        39122
#        45205
#        71885
#        72505
#        90170
#        94127
#        122229
#        125637
#        144437
#        148642
#        160360
#        172690
#        268422
#
# Disc length: 3615 seconds
#
# Revision: 0
# Processed by: cddbd v1.5.1PL0 Copyright (c) Steve Scherf et al.
# Submitted via: ExactAudioCopy v0.95a4
#
DISCID=d90e1d10
DTITLE=CEPHALIC CARNAGE - Lucid Interval
DYEAR=2002
DGENRE=Rock
TTITLE0=Scolopendra Cingulata
TTITLE1=Fortuitous Oddity
TTITLE2=Anthro Emesis
TTITLE3=The Isle Of California
TTITLE4=Pseudo
TTITLE5=Friend Of Mine
TTITLE6=Rebellion
TTITLE7=Zuno Gyakusatsu
TTITLE8=Black Metal Sabbath
TTITLE9=Cannabism
TTITLE10=Lucid Interval
TTITLE11=Misguided
TTITLE12=Pufs De La Morte
TTITLE13=Redundant
TTITLE14=Arsonist Savior
TTITLE15=(Untitle)
EXTD=
EXTT0=
EXTT1=
EXTT2=
EXTT3=
EXTT4=
EXTT5=
EXTT6=
EXTT7=
EXTT8=
EXTT9=
EXTT10=
EXTT11=
EXTT12=
EXTT13=
EXTT14=
EXTT15=
PLAYORDER=
